<svg width="64" height="64" viewBox="0 0 64 64" fill="none" xmlns="http://www.w3.org/2000/svg">
<path d="M64 33.1985C64 37.9643 49.6731 41.8277 32 41.8277C14.3269 41.8277 0 37.9643 0 33.1985C0 28.4327 14.3269 24.5693 32 24.5693C49.6731 24.5693 64 28.4327 64 33.1985Z" fill="black"/>
<path d="M39.4307 32C39.4307 49.6731 35.0307 64 29.603 64C24.1753 64 19.7753 49.6731 19.7753 32C19.7753 14.3269 24.1753 0 29.603 0C35.0307 0 39.4307 14.3269 39.4307 32Z" fill="white"/>
<path d="M41.8277 32C41.8277 49.6731 37.4277 64 32 64C26.5723 64 22.1723 49.6731 22.1723 32C22.1723 14.3269 26.5723 0 32 0C37.4277 0 41.8277 14.3269 41.8277 32Z" fill="black"/>
</svg>
